<?xml version="1.0" encoding="UTF-8"?>
<svg xmlns="http://www.w3.org/2000/svg" xmlns:xlink="http://www.w3.org/1999/xlink" viewBox="0 0 50 50" width="50px" height="50px">
<g id="surface30956156">
<path style=" stroke:none;fill-rule:nonzero;fill:rgb(100%,100%,100%);fill-opacity:1;" d="M 4 5 C 3.449219 5 3 5.449219 3 6 L 3 44 C 3 44.476562 3.339844 44.886719 3.804688 44.980469 C 4.273438 45.070312 4.742188 44.820312 4.925781 44.378906 L 20.558594 6.378906 C 20.6875 6.074219 20.652344 5.722656 20.46875 5.445312 C 20.28125 5.167969 19.96875 5 19.636719 5 Z M 30.363281 5 C 30.03125 5 29.71875 5.167969 29.53125 5.445312 C 29.347656 5.722656 29.3125 6.074219 29.441406 6.382812 L 45.074219 44.382812 C 45.257812 44.820312 45.726562 45.070312 46.195312 44.980469 C 46.660156 44.886719 47 44.476562 47 44 L 47 6 C 47 5.449219 46.550781 5 46 5 Z M 5 7 L 18.144531 7 L 5 38.941406 Z M 31.855469 7 L 45 7 L 45 38.941406 Z M 24.980469 18.113281 C 24.582031 18.117188 24.226562 18.363281 24.074219 18.730469 L 17.164062 35.621094 C 17.039062 35.929688 17.074219 36.28125 17.261719 36.558594 C 17.445312 36.835938 17.757812 37 18.089844 37 L 24.328125 37 L 27.347656 44.378906 C 27.5 44.753906 27.867188 45 28.273438 45 L 35.183594 45 C 35.515625 45 35.828125 44.835938 36.011719 44.558594 C 36.199219 44.28125 36.234375 43.929688 36.109375 43.621094 L 25.925781 18.730469 C 25.769531 18.351562 25.394531 18.105469 24.984375 18.113281 Z M 25 21.753906 L 33.691406 43 L 28.945312 43 L 25.925781 35.621094 C 25.773438 35.246094 25.40625 35 25 35 L 19.582031 35 Z M 25 21.753906 "/>
</g>
</svg>
